<svg width="24" height="17" viewBox="0 0 24 17" fill="none" xmlns="http://www.w3.org/2000/svg">
<g clip-path="url(#clip0_90_8)">
<path d="M15.7263 1.05631C15.6495 0.981119 15.5579 0.921392 15.4569 0.88062C15.3558 0.839847 15.2473 0.818848 15.1377 0.818848C15.0281 0.818848 14.9196 0.839847 14.8185 0.88062C14.7174 0.921392 14.6258 0.981119 14.5491 1.05631C14.3962 1.20556 14.3105 1.40663 14.3105 1.6161C14.3105 1.82557 14.3962 2.02664 14.5491 2.17588L20.5175 7.91217L0.82485 7.91217C0.716283 7.91168 0.608694 7.9319 0.50831 7.97166C0.407926 8.01141 0.31674 8.06991 0.240029 8.14376C0.163319 8.21762 0.102607 8.30537 0.0614072 8.40193C0.0202078 8.49849 -0.000661305 8.60194 7.97291e-06 8.70631C7.97291e-06 9.14831 0.365061 9.51017 0.823587 9.51017L20.5162 9.51017L14.5491 15.2367C14.3963 15.3883 14.3109 15.591 14.3109 15.802C14.3109 16.013 14.3963 16.2157 14.5491 16.3672C14.8775 16.6842 15.408 16.6842 15.7263 16.3672L23.107 9.27217C23.185 9.19949 23.247 9.11249 23.2893 9.01633C23.3317 8.92017 23.3535 8.81681 23.3535 8.71238C23.3535 8.60796 23.3317 8.5046 23.2893 8.40843C23.247 8.31227 23.185 8.22527 23.107 8.1526L15.7263 1.05631Z" fill="#5CB7B1"/>
</g>
<defs>
<clipPath id="clip0_90_8">
<rect width="24" height="17" fill="white"/>
</clipPath>
</defs>
</svg>
