<?xml version="1.0" standalone="no"?>
<!DOCTYPE svg PUBLIC "-//W3C//DTD SVG 20010904//EN"
 "http://www.w3.org/TR/2001/REC-SVG-20010904/DTD/svg10.dtd">
<svg version="1.0" xmlns="http://www.w3.org/2000/svg"
 width="64.000000pt" height="64.000000pt" viewBox="0 0 64.000000 64.000000"
 preserveAspectRatio="xMidYMid meet">

<g transform="translate(0.000000,64.000000) scale(0.100000,-0.100000)"
fill="#000000" stroke="none">
<path d="M223 622 c-109 -39 -178 -112 -210 -221 -29 -102 4 -228 82 -306 122
-121 328 -121 450 0 62 62 90 135 89 230 0 67 -5 89 -27 132 -44 86 -67 80
-25 -6 30 -61 36 -162 14 -229 -21 -61 -73 -124 -134 -160 -42 -24 -56 -27
-142 -27 -72 0 -103 4 -127 18 -52 28 -102 76 -131 126 -24 41 -27 56 -27 141
0 86 3 100 27 142 36 61 99 113 160 134 67 22 168 16 229 -14 25 -12 51 -22
58 -22 22 0 0 20 -51 46 -68 35 -165 41 -235 16z"/>
<path d="M215 556 c-96 -45 -155 -135 -155 -236 0 -141 119 -260 260 -260 186
0 315 198 236 365 -62 134 -213 192 -341 131z m215 -29 c58 -30 105 -93 120
-160 36 -160 -116 -314 -274 -278 -65 15 -111 45 -146 93 -69 95 -59 220 25
303 75 76 178 92 275 42z"/>
<path d="M310 520 c0 -11 5 -20 10 -20 6 0 10 9 10 20 0 11 -4 20 -10 20 -5 0
-10 -9 -10 -20z"/>
<path d="M180 452 c0 -4 23 -30 50 -57 29 -29 50 -58 50 -71 0 -12 7 -27 15
-34 8 -7 15 -28 15 -46 0 -19 5 -34 10 -34 6 0 10 15 10 34 0 18 7 39 15 46
30 25 11 70 -30 70 -12 0 -42 22 -70 50 -47 48 -65 59 -65 42z m150 -132 c0
-5 -4 -10 -10 -10 -5 0 -10 5 -10 10 0 6 5 10 10 10 6 0 10 -4 10 -10z"/>
<path d="M100 320 c0 -5 9 -10 20 -10 11 0 20 5 20 10 0 6 -9 10 -20 10 -11 0
-20 -4 -20 -10z"/>
<path d="M500 320 c0 -5 9 -10 20 -10 11 0 20 5 20 10 0 6 -9 10 -20 10 -11 0
-20 -4 -20 -10z"/>
<path d="M120 260 c0 -5 5 -10 10 -10 6 0 10 5 10 10 0 6 -4 10 -10 10 -5 0
-10 -4 -10 -10z"/>
<path d="M140 218 c0 -16 78 -88 95 -88 25 0 17 13 -34 58 -53 45 -61 49 -61
30z"/>
<path d="M310 120 c0 -11 5 -20 10 -20 6 0 10 9 10 20 0 11 -4 20 -10 20 -5 0
-10 -9 -10 -20z"/>
<path d="M530 540 c0 -5 5 -10 10 -10 6 0 10 5 10 10 0 6 -4 10 -10 10 -5 0
-10 -4 -10 -10z"/>
</g>
</svg>
