<?xml version="1.0" standalone="no"?>
<!DOCTYPE svg PUBLIC "-//W3C//DTD SVG 20010904//EN"
 "http://www.w3.org/TR/2001/REC-SVG-20010904/DTD/svg10.dtd">
<svg version="1.0" xmlns="http://www.w3.org/2000/svg"
 width="64.000000pt" height="64.000000pt" viewBox="0 0 64.000000 64.000000"
 preserveAspectRatio="xMidYMid meet">

<g transform="translate(0.000000,64.000000) scale(0.100000,-0.100000)"
fill="#000000" stroke="none">
<path d="M286 613 c-18 -17 -25 -28 -17 -31 7 -2 21 4 32 14 18 17 20 16 45
-7 l26 -24 -119 -5 -118 -5 0 -97 c0 -122 19 -133 23 -13 l3 85 129 0 c151 0
157 5 81 69 -27 23 -50 41 -52 41 -3 0 -17 -12 -33 -27z"/>
<path d="M464 545 c-52 -27 -71 -99 -36 -141 19 -25 53 -44 76 -44 25 0 19 19
-8 26 -85 21 -76 144 11 144 45 0 75 -31 71 -73 -4 -43 -22 -37 -28 9 -6 42
-32 58 -65 41 -62 -31 -39 -99 34 -103 38 -2 81 -25 81 -44 0 -4 -20 -21 -45
-39 -42 -30 -45 -31 -45 -12 0 12 -7 21 -15 21 -10 0 -15 -10 -15 -32 0 -28
-8 -38 -46 -65 l-47 -32 -33 26 -34 25 -34 -26 -34 -25 -103 75 c-57 41 -105
78 -107 83 -2 5 13 22 32 38 20 15 36 31 36 36 0 16 -24 5 -66 -29 l-44 -36 0
-184 0 -184 320 0 320 0 0 183 c0 172 -1 185 -20 202 -15 14 -19 26 -15 46 7
30 -13 87 -37 106 -25 21 -71 24 -104 8z m64 -88 c3 -22 -1 -27 -18 -27 -23 0
-35 22 -26 46 10 25 41 12 44 -19z m-366 -222 c37 -27 67 -49 65 -50 -1 -1
-46 -34 -99 -74 l-98 -71 0 146 0 146 33 -24 c17 -14 62 -47 99 -73z m446
-118 l-3 -73 -97 71 -97 71 97 71 97 71 3 -69 c2 -37 2 -101 0 -142z m-156 8
l130 -95 -262 0 -262 0 128 95 c71 52 131 94 132 95 2 0 62 -43 134 -95z"/>
<path d="M197 494 c-18 -18 -2 -24 64 -24 52 0 70 3 67 13 -5 13 -119 23 -131
11z"/>
<path d="M190 420 c0 -6 30 -10 70 -10 40 0 70 4 70 10 0 6 -30 10 -70 10 -40
0 -70 -4 -70 -10z"/>
<path d="M190 360 c0 -5 21 -10 46 -10 27 0 43 4 39 10 -3 6 -24 10 -46 10
-21 0 -39 -4 -39 -10z"/>
<path d="M315 360 c-3 -5 1 -10 10 -10 9 0 13 5 10 10 -3 6 -8 10 -10 10 -2 0
-7 -4 -10 -10z"/>
<path d="M370 360 c0 -5 12 -10 26 -10 14 0 23 4 19 10 -3 6 -15 10 -26 10
-10 0 -19 -4 -19 -10z"/>
<path d="M136 321 c-4 -5 -2 -12 3 -15 5 -4 12 -2 15 3 4 5 2 12 -3 15 -5 4
-12 2 -15 -3z"/>
</g>
</svg>
