<svg width="40" height="40" viewBox="0 0 40 40" fill="none" xmlns="http://www.w3.org/2000/svg">
    <path  fill-rule="evenodd" clip-rule="evenodd" d="M20.4175 14.167C18.8092 14.167 17.5009 15.4753 17.5009 17.0853C17.5009 18.6937 18.8092 20.0003 20.4175 20.0003C22.0259 20.0003 23.3342 18.6937 23.3342 17.0853C23.3342 15.4753 22.0259 14.167 20.4175 14.167M20.4175 22.5003C17.4309 22.5003 15.0009 20.072 15.0009 17.0853C15.0009 14.097 17.4309 11.667 20.4175 11.667C23.4042 11.667 25.8342 14.097 25.8342 17.0853C25.8342 20.072 23.4042 22.5003 20.4175 22.5003" fill="#000"/>
    <mask id="mask0_90_200" style="mask-type:alpha" maskUnits="userSpaceOnUse" x="6" y="3" width="29" height="33">
        <path fill-rule="evenodd" clip-rule="evenodd" d="M6.66669 3.3335H34.1659V35.8335H6.66669V3.3335Z" fill="white"/>
    </mask>
    <g mask="url(#mask0_90_200)">
        <path fill-rule="evenodd" clip-rule="evenodd" d="M20.4158 5.8335C14.2125 5.8335 9.16583 10.9285 9.16583 17.1885C9.16583 25.1535 18.5392 32.9135 20.4158 33.3268C22.2925 32.9118 31.6658 25.1518 31.6658 17.1885C31.6658 10.9285 26.6192 5.8335 20.4158 5.8335V5.8335ZM20.4158 35.8335C17.4258 35.8335 6.66583 26.5802 6.66583 17.1885C6.66583 9.5485 12.8342 3.3335 20.4158 3.3335C27.9975 3.3335 34.1658 9.5485 34.1658 17.1885C34.1658 26.5802 23.4058 35.8335 20.4158 35.8335V35.8335Z" fill="#000"/>
    </g>
</svg>
