<?xml version="1.0" standalone="no"?>
<!DOCTYPE svg PUBLIC "-//W3C//DTD SVG 20010904//EN"
 "http://www.w3.org/TR/2001/REC-SVG-20010904/DTD/svg10.dtd">
<svg version="1.0" xmlns="http://www.w3.org/2000/svg"
 width="64.000000pt" height="64.000000pt" viewBox="0 0 64.000000 64.000000"
 preserveAspectRatio="xMidYMid meet">

<g transform="translate(0.000000,64.000000) scale(0.100000,-0.100000)"
fill="#000000" stroke="none">
<path d="M342 624 c2 -9 23 -23 47 -31 105 -35 169 -100 204 -204 19 -55 53
-70 42 -17 -21 105 -110 210 -211 247 -66 25 -87 26 -82 5z"/>
<path d="M52 556 c-66 -72 -67 -120 -6 -237 105 -200 351 -362 461 -305 41 21
93 82 93 109 0 31 -107 137 -138 137 -14 0 -40 -14 -59 -30 l-34 -30 -45 32
c-24 17 -63 56 -86 85 l-41 54 31 32 c48 49 43 77 -22 143 -71 70 -97 72 -154
10z m168 -106 c-5 -9 -16 -23 -25 -30 -44 -36 -40 -59 19 -134 29 -38 139
-126 157 -126 5 0 27 16 49 37 l41 36 50 -49 c27 -26 49 -56 49 -65 0 -9 -16
-31 -35 -48 -48 -42 -90 -41 -185 5 -143 68 -300 266 -300 377 0 33 7 46 40
80 l41 40 54 -53 c42 -41 52 -57 45 -70z"/>
<path d="M336 511 c-7 -11 9 -24 51 -40 38 -15 65 -44 90 -95 20 -43 39 -45
37 -4 -4 71 -150 185 -178 139z"/>
</g>
</svg>
