<?xml version="1.0" standalone="no"?>
<!DOCTYPE svg PUBLIC "-//W3C//DTD SVG 20010904//EN"
 "http://www.w3.org/TR/2001/REC-SVG-20010904/DTD/svg10.dtd">
<svg version="1.0" xmlns="http://www.w3.org/2000/svg"
 width="256.000000pt" height="256.000000pt" viewBox="0 0 256.000000 256.000000"
 preserveAspectRatio="xMidYMid meet">

<g transform="translate(0.000000,256.000000) scale(0.100000,-0.100000)"
fill="#000000" stroke="none">
<path d="M943 2400 c-114 -24 -174 -95 -189 -227 l-6 -62 -350 -3 -350 -3 -24
-28 -24 -28 0 -858 0 -859 28 -52 c36 -68 90 -107 167 -120 81 -13 2089 -13
2170 0 77 13 131 52 168 120 l27 52 0 854 c0 625 -3 860 -12 878 -7 17 -24 30
-47 36 -21 6 -176 10 -362 10 l-326 0 -7 63 c-13 110 -56 176 -141 214 -35 16
-77 18 -360 20 -176 1 -339 -2 -362 -7z m689 -167 c13 -12 18 -30 18 -70 l0
-53 -370 0 -370 0 0 52 c0 92 -17 88 368 88 298 0 337 -2 354 -17z m627 -640
c-71 -213 -126 -363 -136 -370 -12 -10 -77 -13 -239 -13 l-221 0 -6 52 c-4 33
-14 60 -27 72 -20 20 -31 21 -350 21 -319 0 -330 -1 -350 -21 -13 -12 -23 -39
-27 -72 l-6 -52 -221 0 c-162 0 -227 3 -239 13 -10 7 -65 157 -136 370 l-119
357 1098 0 1098 0 -119 -357z m-1948 -456 c16 -19 50 -46 76 -58 45 -22 61
-24 279 -27 l231 -4 6 -51 c4 -32 14 -59 27 -71 20 -20 31 -21 350 -21 319 0
330 1 350 21 13 12 23 39 27 71 l6 51 231 4 c218 3 234 5 279 27 77 37 98 73
170 285 l66 191 0 -593 c1 -594 0 -623 -33 -644 -14 -10 -2178 -10 -2192 0
-33 21 -34 50 -33 644 l0 593 66 -191 c44 -130 74 -203 94 -227z m1189 -7 l0
-70 -220 0 -220 0 0 70 0 70 220 0 220 0 0 -70z"/>
</g>
</svg>
