<?xml version="1.0" standalone="no"?>
<!DOCTYPE svg PUBLIC "-//W3C//DTD SVG 20010904//EN"
 "http://www.w3.org/TR/2001/REC-SVG-20010904/DTD/svg10.dtd">
<svg version="1.0" xmlns="http://www.w3.org/2000/svg"
 width="128.000000pt" height="128.000000pt" viewBox="0 0 128.000000 128.000000"
 preserveAspectRatio="xMidYMid meet">

<g transform="translate(0.000000,128.000000) scale(0.100000,-0.100000)"
fill="#000000" stroke="none">
<path d="M300 1220 c-18 -18 -20 -33 -20 -140 0 -149 7 -160 100 -160 53 0 60
-2 60 -20 0 -18 -8 -20 -137 -22 l-137 -3 -53 -85 c-57 -90 -65 -128 -39 -179
8 -15 26 -32 40 -39 l26 -12 0 -200 0 -200 -30 0 c-44 0 -72 -32 -68 -78 l3
-37 595 0 595 0 3 37 c4 46 -24 78 -68 78 l-30 0 0 200 0 200 26 12 c14 7 32
24 40 39 26 51 18 89 -39 179 l-53 85 -137 3 c-129 2 -137 4 -137 22 0 18 7
20 60 20 93 0 100 11 100 160 0 174 32 160 -360 160 -307 0 -321 -1 -340 -20z
m655 -140 l0 -115 -315 0 -315 0 -3 104 c-1 58 0 111 2 118 5 11 65 13 318 11
l313 -3 0 -115z m-155 -180 c0 -19 -7 -20 -160 -20 -153 0 -160 1 -160 20 0
19 7 20 160 20 153 0 160 -1 160 -20z m-540 -120 l-30 -60 -55 0 c-63 0 -63
-2 -7 83 23 34 28 37 73 37 l49 0 -30 -60z m165 43 c-4 -10 -14 -37 -22 -60
l-15 -43 -59 0 -59 0 30 60 30 60 51 0 c45 0 50 -2 44 -17z m129 -20 c-12 -86
-9 -83 -70 -83 -50 0 -55 2 -49 18 4 9 14 36 22 60 14 41 16 42 58 42 l44 0
-5 -37z m130 15 c3 -13 7 -40 10 -60 l5 -38 -59 0 -59 0 5 38 c11 82 11 82 54
82 33 0 40 -4 44 -22z m139 -20 c8 -24 18 -51 22 -60 6 -16 1 -18 -49 -18 -61
0 -58 -3 -70 83 l-5 37 44 0 c42 0 44 -1 58 -42z m157 -18 l30 -60 -59 0 -59
0 -15 43 c-8 23 -18 50 -22 60 -6 15 -1 17 44 17 l51 0 30 -60z m132 23 c56
-85 56 -83 -7 -83 l-55 0 -30 60 -30 60 49 0 c45 0 50 -3 73 -37z m-892 -143
c0 -26 -34 -60 -60 -60 -26 0 -60 34 -60 60 0 18 7 20 60 20 53 0 60 -2 60
-20z m160 0 c0 -11 -9 -29 -20 -40 -11 -11 -29 -20 -40 -20 -11 0 -29 9 -40
20 -11 11 -20 29 -20 40 0 18 7 20 60 20 53 0 60 -2 60 -20z m160 0 c0 -11 -9
-29 -20 -40 -11 -11 -29 -20 -40 -20 -11 0 -29 9 -40 20 -11 11 -20 29 -20 40
0 18 7 20 60 20 53 0 60 -2 60 -20z m160 0 c0 -26 -34 -60 -60 -60 -11 0 -29
9 -40 20 -11 11 -20 29 -20 40 0 18 7 20 60 20 53 0 60 -2 60 -20z m160 0 c0
-26 -34 -60 -60 -60 -26 0 -60 34 -60 60 0 18 7 20 60 20 53 0 60 -2 60 -20z
m160 0 c0 -26 -34 -60 -60 -60 -26 0 -60 34 -60 60 0 18 7 20 60 20 53 0 60
-2 60 -20z m160 0 c0 -26 -34 -60 -60 -60 -26 0 -60 34 -60 60 0 18 7 20 60
20 53 0 60 -2 60 -20z m-884 -96 c30 -8 68 1 88 22 15 14 17 14 32 0 32 -33
96 -33 128 0 15 14 17 14 32 0 32 -33 96 -33 128 0 15 14 17 14 32 0 32 -33
96 -33 128 0 15 14 17 14 32 0 31 -31 98 -33 126 -2 10 11 18 9 45 -7 l33 -19
0 -199 0 -199 -80 0 -80 0 0 140 c0 195 26 180 -300 180 -326 0 -300 15 -300
-180 l0 -140 -80 0 -80 0 0 199 0 199 33 19 c26 16 34 17 45 6 7 -7 24 -16 38
-19z m324 -264 l0 -140 -120 0 -120 0 0 133 c0 74 3 137 7 140 3 4 57 7 120 7
l113 0 0 -140z m278 -3 l3 -137 -121 0 -120 0 0 140 0 141 118 -3 117 -3 3
-138z m300 -200 c3 -16 -29 -17 -557 -17 -461 0 -561 2 -561 13 0 8 3 17 7 20
3 4 254 6 557 5 515 -3 551 -4 554 -21z"/>
<path d="M400 1160 c-35 -35 -21 -81 30 -98 31 -11 38 -26 19 -38 -7 -4 -20 4
-30 17 -13 18 -21 21 -29 13 -29 -29 21 -81 66 -70 56 14 56 88 -1 112 -36 15
-44 28 -24 40 7 4 19 -3 29 -16 18 -23 40 -20 40 6 0 21 -37 54 -60 54 -11 0
-29 -9 -40 -20z"/>
<path d="M525 1167 c-3 -7 -5 -52 -3 -98 2 -67 6 -84 18 -84 10 0 16 12 18 38
2 28 8 37 22 37 14 0 20 -9 22 -37 2 -26 8 -38 18 -38 12 0 15 17 15 95 0 78
-3 95 -15 95 -10 0 -16 -12 -18 -37 -2 -29 -8 -38 -22 -38 -14 0 -20 9 -22 37
-3 37 -24 56 -33 30z"/>
<path d="M680 1160 c-16 -16 -20 -33 -20 -80 0 -65 21 -100 60 -100 39 0 60
35 60 100 0 65 -21 100 -60 100 -11 0 -29 -9 -40 -20z m55 -81 c0 -41 -4 -54
-15 -54 -16 0 -27 73 -16 102 13 33 31 5 31 -48z"/>
<path d="M804 1167 c-3 -8 -4 -52 -2 -98 2 -67 6 -84 18 -84 10 0 16 12 18 38
3 29 7 37 23 37 25 0 59 35 59 60 0 32 -36 60 -75 60 -21 0 -38 -6 -41 -13z
m71 -47 c0 -8 -8 -16 -17 -18 -13 -2 -18 3 -18 18 0 15 5 20 18 18 9 -2 17
-10 17 -18z"/>
<path d="M564 306 c-8 -22 3 -49 19 -43 6 2 12 14 12 27 0 27 -22 39 -31 16z"/>
<path d="M684 306 c-8 -22 3 -49 19 -43 6 2 12 14 12 27 0 27 -22 39 -31 16z"/>
</g>
</svg>
